<?xml version="1.0" encoding="UTF-8"?>
<svg id="Layer_1" data-name="Layer 1" xmlns="http://www.w3.org/2000/svg" viewBox="0 0 380 321.95">
  <defs>
    <style>
      .cls-1 {
        fill: #d12205;
      }
    </style>
  </defs>
  <path class="cls-1" d="m293.12,216.72c.96.22,1.93.44,2.89.67,6.94,1.66,9.86,6.24,7.76,12.91-1.93,6.13-5.63,11.29-10.11,15.84-1.02,1.03-2.59,1.53-4.14,2.4,1.25.27,2.42.46,3.55.79,4.04,1.18,5.94,3.42,5.22,7.51-.78,4.41-1.89,8.88-3.72,12.94-2.46,5.44-7.06,8.63-13.3,9.07.2.41.23.62.33.66,5.23,2.39,5.92,4.12,3.95,9.59-3.48,9.64-11.18,13.8-20.55,15.61-2.75.53-5.61.63-8.42.63-26.94.01-53.88.03-80.81-.11-9.39-.05-18.43-2.21-27.27-5.35-2.54-.91-3.35-2.2-3.33-4.82.1-18.39.05-36.78.05-55.16,0-16.85.04-33.7-.02-50.55,0-2.1.41-2.88,2.73-3.52,3.8-1.04,7.57-2.69,10.91-4.78,7.11-4.46,12.64-10.68,17.58-17.4,7.13-9.7,14.72-19.09,19.74-30.18,3.21-7.1,5.18-14.44,5.14-22.28-.02-5.39,0-10.78.06-16.16.03-3.07,2.1-5.58,5.04-6.28,11.87-2.82,26.06,6.04,28.87,17.85,1.7,7.13,1.09,14.15-.83,21.03-2.55,9.11-5.53,18.1-8.27,27.16-1.23,4.08-2.6,8.13-1.33,12.54,2.15,7.44,7.78,12.13,15.51,12.18,15.91.12,31.81.01,47.72.05,2.04,0,4.13.09,6.1.56,6.9,1.64,11.07,6.82,11.21,14.03.1,5.19-1.06,10.16-3.43,14.83-1.89,3.73-4.92,6.02-8.83,7.74Z"/>
  <path class="cls-1" d="m86.53,178.29c.83-.07,1.66-.2,2.49-.2,14.36-.04,28.73-.03,43.09-.15,2.36-.02,3.27.5,3.26,3.09-.08,39.42-.06,78.83-.06,118.25,0,1.36,0,2.72,0,4.28h-48.79v-125.28Z"/>
  <path class="cls-1" d="m206.01,28.03c0-6.5,0-12.99,0-19.49,0-.85,0-1.72.13-2.56.53-3.44,3.07-5.8,6.37-5.98,3.05-.16,6.12,2.26,6.76,5.55.34,1.75.47,3.56.48,5.35.01,12.48-.02,24.96-.07,37.43-.02,4.8-1.93,7.45-5.74,8.15-3.4.63-6.62-1.31-7.47-4.68-.37-1.47-.49-3.04-.5-4.56-.05-6.41-.02-12.82-.02-19.23.02,0,.03,0,.05,0Z"/>
  <path class="cls-1" d="m136.35,31.15c.97.52,2.88,1.08,4.14,2.3,10.31,9.98,20.56,20.03,30.69,30.19,4.09,4.1,2.44,10.03-2.93,11.44-2.58.68-4.73-.26-6.53-2.02-6.22-6.1-12.38-12.26-18.6-18.37-4.02-3.95-8.14-7.81-12.14-11.78-2.2-2.19-2.74-4.88-1.6-7.79,1.07-2.73,3.39-3.66,6.97-3.97Z"/>
  <path class="cls-1" d="m288.76,31.13c3.66.24,5.85,1.12,7.01,3.51,1.16,2.38,1.19,4.91-.56,7.01-1.91,2.29-4.05,4.39-6.17,6.49-7.96,7.87-15.96,15.71-23.95,23.56-.67.66-1.34,1.33-2.08,1.9-3.17,2.48-6.65,2.33-9.2-.37-2.59-2.74-2.63-6.54.1-9.47,2.16-2.31,4.53-4.41,6.78-6.63,7.74-7.62,15.42-15.29,23.24-22.82,1.58-1.52,3.7-2.46,4.83-3.19Z"/>
  <path class="cls-1" d="m125.65,107.18c6.84,0,13.68-.02,20.52.02,1.27,0,2.58.13,3.79.46,2.66.74,4.17,2.69,4.54,5.33.35,2.47-.55,4.77-2.78,5.88-1.83.91-4.04,1.46-6.08,1.48-13.34.13-26.67.08-40.01.05-1.27,0-2.57-.12-3.8-.4-2.8-.63-5.06-3.37-5.12-6.01-.06-2.9,1.97-5.68,4.9-6.44,1.22-.32,2.53-.38,3.8-.39,6.75-.04,13.51-.02,20.26-.02v.03Z"/>
  <path class="cls-1" d="m299.6,107.14c7.09,0,14.18-.04,21.27.01,4.49.03,7.65,2.79,7.68,6.55.02,3.59-3.08,6.62-7.4,6.65-14.09.09-28.18,0-42.28-.03-.59,0-1.19-.14-1.78-.23-3.82-.57-6.35-3.38-6.21-6.87.14-3.48,2.91-6,6.94-6.05,7.26-.08,14.52-.02,21.78-.02h0Z"/>
</svg>